<svg xmlns="http://www.w3.org/2000/svg" width="128" height="128" viewBox="0 0 128 128">
  <defs>
    <linearGradient id="bg" x1="0" y1="0" x2="1" y2="1">
      <stop offset="0" stop-color="#8a6bff"/>
      <stop offset="1" stop-color="#4d7dff"/>
    </linearGradient>
    <linearGradient id="shellg" x1="0" y1="0" x2="1" y2="1">
      <stop offset="0" stop-color="#ffffff"/>
      <stop offset="1" stop-color="#e7ecf5"/>
    </linearGradient>
  </defs>

  <rect x="4" y="4" width="120" height="120" rx="32" fill="url(#bg)"/>

  <!-- concha em espiral (nautilus): centerline logaritmica com largura afunilando pro centro -->
  <path d="M 63.83 66.35 L 63.85 66.48 L 63.86 66.57 L 63.87 66.65 L 63.87 66.74 L 63.87 66.83 L 63.86 66.92 L 63.85 67.01 L 63.84 67.10 L 63.82 67.19 L 63.80 67.29 L 63.77 67.38 L 63.74 67.48 L 63.70 67.57 L 63.66 67.67 L 63.62 67.76 L 63.57 67.85 L 63.51 67.95 L 63.45 68.04 L 63.38 68.13 L 63.31 68.21 L 63.24 68.30 L 63.16 68.39 L 63.07 68.47 L 62.98 68.55 L 62.89 68.62 L 62.79 68.69 L 62.68 68.76 L 62.57 68.83 L 62.46 68.89 L 62.34 68.95 L 62.22 69.00 L 62.10 69.05 L 61.97 69.09 L 61.84 69.13 L 61.70 69.17 L 61.56 69.19 L 61.42 69.21 L 61.27 69.23 L 61.12 69.24 L 60.97 69.24 L 60.82 69.24 L 60.67 69.23 L 60.51 69.21 L 60.36 69.18 L 60.20 69.15 L 60.04 69.11 L 59.89 69.06 L 59.73 69.01 L 59.57 68.95 L 59.42 68.88 L 59.26 68.80 L 59.11 68.71 L 58.96 68.62 L 58.81 68.52 L 58.66 68.41 L 58.52 68.29 L 58.38 68.17 L 58.25 68.03 L 58.12 67.89 L 58.00 67.74 L 57.90 67.57 L 57.80 67.40 L 57.71 67.23 L 57.62 67.04 L 57.54 66.86 L 57.47 66.67 L 57.41 66.47 L 57.36 66.27 L 57.31 66.07 L 57.28 65.86 L 57.25 65.65 L 57.23 65.44 L 57.22 65.22 L 57.22 65.00 L 57.23 64.78 L 57.25 64.56 L 57.28 64.34 L 57.32 64.12 L 57.37 63.90 L 57.43 63.68 L 57.50 63.46 L 57.58 63.24 L 57.67 63.03 L 57.77 62.81 L 57.88 62.60 L 58.00 62.40 L 58.13 62.19 L 58.27 61.99 L 58.42 61.80 L 58.58 61.61 L 58.75 61.43 L 58.93 61.25 L 59.12 61.08 L 59.32 60.92 L 59.52 60.76 L 59.74 60.62 L 59.96 60.48 L 60.19 60.35 L 60.43 60.23 L 60.67 60.11 L 60.93 60.01 L 61.18 59.92 L 61.45 59.84 L 61.72 59.77 L 61.99 59.72 L 62.27 59.67 L 62.55 59.64 L 62.84 59.62 L 63.13 59.61 L 63.42 59.61 L 63.71 59.63 L 64.01 59.66 L 64.30 59.70 L 64.60 59.76 L 64.89 59.83 L 65.19 59.91 L 65.48 60.01 L 65.77 60.12 L 66.06 60.24 L 66.34 60.38 L 66.62 60.54 L 66.90 60.70 L 67.17 60.88 L 67.43 61.07 L 67.69 61.28 L 67.94 61.50 L 68.18 61.73 L 68.42 61.97 L 68.64 62.23 L 68.86 62.49 L 69.06 62.77 L 69.25 63.06 L 69.44 63.36 L 69.61 63.67 L 69.77 63.99 L 69.91 64.32 L 70.04 64.66 L 70.16 65.01 L 70.26 65.36 L 70.35 65.72 L 70.42 66.09 L 70.48 66.47 L 70.52 66.85 L 70.54 67.23 L 70.55 67.62 L 70.54 68.01 L 70.51 68.40 L 70.47 68.79 L 70.40 69.19 L 70.32 69.59 L 70.22 69.98 L 70.11 70.37 L 69.97 70.76 L 69.82 71.15 L 69.65 71.54 L 69.45 71.91 L 69.25 72.29 L 69.02 72.65 L 68.78 73.01 L 68.51 73.36 L 68.23 73.70 L 67.94 74.04 L 67.62 74.36 L 67.29 74.67 L 66.95 74.96 L 66.59 75.25 L 66.21 75.52 L 65.82 75.77 L 65.41 76.01 L 64.99 76.24 L 64.56 76.44 L 64.12 76.63 L 63.66 76.80 L 63.19 76.95 L 62.72 77.08 L 62.23 77.20 L 61.74 77.29 L 61.23 77.36 L 60.72 77.40 L 60.21 77.43 L 59.69 77.43 L 59.17 77.41 L 58.64 77.37 L 58.11 77.30 L 57.58 77.21 L 57.05 77.09 L 56.53 76.95 L 56.00 76.79 L 55.48 76.60 L 54.96 76.39 L 54.45 76.15 L 53.95 75.89 L 53.45 75.61 L 52.96 75.30 L 52.49 74.96 L 52.02 74.61 L 51.57 74.22 L 51.13 73.82 L 50.70 73.40 L 50.29 72.95 L 49.90 72.48 L 49.53 71.99 L 49.17 71.48 L 48.84 70.95 L 48.52 70.40 L 48.23 69.84 L 47.96 69.26 L 47.72 68.66 L 47.50 68.04 L 47.30 67.41 L 47.13 66.77 L 46.99 66.12 L 46.88 65.45 L 46.79 64.78 L 46.74 64.10 L 46.71 63.41 L 46.72 62.71 L 46.75 62.01 L 46.82 61.31 L 46.92 60.60 L 47.05 59.89 L 47.21 59.19 L 47.41 58.48 L 47.64 57.78 L 47.90 57.08 L 48.19 56.40 L 48.52 55.71 L 48.88 55.04 L 49.27 54.38 L 49.69 53.73 L 50.15 53.10 L 50.63 52.48 L 51.15 51.88 L 51.70 51.30 L 52.28 50.74 L 52.88 50.20 L 53.52 49.68 L 54.18 49.18 L 54.87 48.72 L 55.59 48.28 L 56.33 47.86 L 57.09 47.48 L 57.87 47.13 L 58.68 46.81 L 59.51 46.53 L 60.35 46.28 L 61.21 46.06 L 62.09 45.88 L 62.99 45.74 L 63.89 45.64 L 64.81 45.58 L 65.73 45.56 L 66.66 45.57 L 67.60 45.63 L 68.55 45.74 L 69.49 45.88 L 70.44 46.07 L 71.38 46.30 L 72.32 46.57 L 73.26 46.89 L 74.19 47.25 L 75.11 47.66 L 76.01 48.11 L 76.91 48.60 L 77.79 49.13 L 78.65 49.71 L 79.49 50.33 L 80.31 51.00 L 81.11 51.70 L 81.88 52.44 L 82.62 53.23 L 83.34 54.05 L 84.02 54.91 L 84.67 55.81 L 85.28 56.74 L 85.86 57.70 L 86.40 58.70 L 86.90 59.73 L 87.36 60.79 L 87.77 61.87 L 88.14 62.99 L 88.46 64.12 L 88.73 65.28 L 88.96 66.46 L 89.13 67.66 L 89.25 68.88 L 89.32 70.11 L 89.34 71.35 L 89.30 72.60 L 89.20 73.85 L 89.05 75.12 L 88.84 76.38 L 88.57 77.64 L 88.25 78.91 L 87.86 80.16 L 87.42 81.41 L 86.92 82.65 L 86.36 83.87 L 85.75 85.08 L 84.93 86.58 L 113.41 99.42 L 114.27 97.19 L 115.15 94.63 L 115.92 92.05 L 116.57 89.46 L 117.10 86.87 L 117.51 84.28 L 117.80 81.69 L 117.98 79.12 L 118.04 76.56 L 118.00 74.02 L 117.84 71.50 L 117.57 69.02 L 117.20 66.57 L 116.73 64.15 L 116.15 61.78 L 115.47 59.46 L 114.70 57.19 L 113.84 54.97 L 112.89 52.81 L 111.86 50.71 L 110.74 48.67 L 109.54 46.70 L 108.27 44.81 L 106.92 42.98 L 105.51 41.23 L 104.04 39.56 L 102.50 37.96 L 100.91 36.45 L 99.27 35.02 L 97.58 33.68 L 95.85 32.42 L 94.08 31.25 L 92.27 30.16 L 90.44 29.17 L 88.57 28.26 L 86.68 27.44 L 84.78 26.72 L 82.86 26.08 L 80.93 25.53 L 78.99 25.07 L 77.05 24.70 L 75.12 24.42 L 73.18 24.22 L 71.26 24.11 L 69.35 24.09 L 67.46 24.15 L 65.58 24.29 L 63.73 24.51 L 61.90 24.81 L 60.11 25.19 L 58.35 25.64 L 56.62 26.17 L 54.93 26.76 L 53.28 27.43 L 51.68 28.16 L 50.12 28.95 L 48.62 29.80 L 47.16 30.72 L 45.75 31.68 L 44.41 32.70 L 43.11 33.77 L 41.88 34.89 L 40.70 36.05 L 39.59 37.25 L 38.54 38.48 L 37.55 39.76 L 36.63 41.06 L 35.77 42.39 L 34.98 43.75 L 34.25 45.13 L 33.60 46.53 L 33.00 47.95 L 32.48 49.37 L 32.02 50.81 L 31.63 52.26 L 31.31 53.71 L 31.05 55.16 L 30.86 56.60 L 30.73 58.05 L 30.67 59.48 L 30.67 60.91 L 30.73 62.32 L 30.85 63.72 L 31.03 65.10 L 31.27 66.46 L 31.57 67.79 L 31.93 69.10 L 32.34 70.39 L 32.80 71.64 L 33.31 72.86 L 33.87 74.05 L 34.47 75.21 L 35.12 76.32 L 35.82 77.40 L 36.55 78.44 L 37.32 79.44 L 38.13 80.39 L 38.98 81.30 L 39.85 82.17 L 40.76 82.99 L 41.69 83.76 L 42.65 84.48 L 43.63 85.16 L 44.64 85.79 L 45.66 86.37 L 46.69 86.89 L 47.74 87.37 L 48.80 87.80 L 49.87 88.18 L 50.95 88.51 L 52.03 88.78 L 53.12 89.01 L 54.20 89.19 L 55.28 89.32 L 56.36 89.40 L 57.43 89.44 L 58.50 89.42 L 59.55 89.36 L 60.59 89.26 L 61.62 89.11 L 62.63 88.92 L 63.62 88.68 L 64.60 88.41 L 65.55 88.09 L 66.48 87.73 L 67.39 87.34 L 68.27 86.91 L 69.13 86.45 L 69.95 85.95 L 70.75 85.43 L 71.52 84.87 L 72.26 84.28 L 72.96 83.67 L 73.63 83.03 L 74.27 82.37 L 74.87 81.69 L 75.44 80.98 L 75.97 80.26 L 76.47 79.52 L 76.93 78.77 L 77.35 78.00 L 77.73 77.22 L 78.08 76.44 L 78.39 75.64 L 78.66 74.84 L 78.89 74.03 L 79.09 73.22 L 79.25 72.41 L 79.37 71.60 L 79.46 70.79 L 79.51 69.99 L 79.53 69.19 L 79.51 68.39 L 79.45 67.61 L 79.37 66.83 L 79.24 66.07 L 79.09 65.32 L 78.91 64.58 L 78.69 63.85 L 78.45 63.14 L 78.17 62.45 L 77.87 61.78 L 77.54 61.13 L 77.19 60.49 L 76.81 59.88 L 76.41 59.29 L 75.99 58.72 L 75.54 58.18 L 75.08 57.66 L 74.60 57.16 L 74.10 56.69 L 73.58 56.25 L 73.05 55.83 L 72.51 55.44 L 71.95 55.08 L 71.39 54.75 L 70.81 54.44 L 70.23 54.16 L 69.64 53.91 L 69.04 53.68 L 68.44 53.49 L 67.83 53.32 L 67.23 53.18 L 66.62 53.07 L 66.02 52.99 L 65.41 52.93 L 64.81 52.90 L 64.21 52.89 L 63.62 52.92 L 63.04 52.96 L 62.46 53.04 L 61.89 53.13 L 61.33 53.26 L 60.78 53.40 L 60.24 53.57 L 59.72 53.76 L 59.20 53.97 L 58.70 54.20 L 58.22 54.45 L 57.75 54.72 L 57.29 55.01 L 56.86 55.31 L 56.44 55.63 L 56.04 55.97 L 55.65 56.32 L 55.29 56.69 L 54.94 57.06 L 54.62 57.45 L 54.31 57.85 L 54.03 58.26 L 53.76 58.68 L 53.52 59.10 L 53.29 59.54 L 53.09 59.97 L 52.91 60.42 L 52.75 60.86 L 52.61 61.31 L 52.49 61.77 L 52.39 62.22 L 52.31 62.67 L 52.25 63.13 L 52.22 63.58 L 52.20 64.03 L 52.20 64.47 L 52.22 64.91 L 52.27 65.35 L 52.33 65.78 L 52.40 66.20 L 52.50 66.62 L 52.61 67.03 L 52.74 67.43 L 52.89 67.82 L 53.05 68.20 L 53.23 68.57 L 53.42 68.93 L 53.62 69.28 L 53.84 69.61 L 54.07 69.94 L 54.32 70.25 L 54.57 70.54 L 54.84 70.83 L 55.10 71.11 L 55.37 71.38 L 55.66 71.63 L 55.95 71.87 L 56.25 72.09 L 56.56 72.30 L 56.87 72.50 L 57.19 72.68 L 57.52 72.85 L 57.85 73.00 L 58.19 73.13 L 58.53 73.25 L 58.87 73.35 L 59.22 73.44 L 59.56 73.51 L 59.91 73.57 L 60.26 73.61 L 60.60 73.63 L 60.95 73.64 L 61.29 73.63 L 61.63 73.61 L 61.97 73.58 L 62.31 73.53 L 62.63 73.46 L 62.96 73.39 L 63.28 73.30 L 63.59 73.19 L 63.90 73.07 L 64.20 72.94 L 64.49 72.80 L 64.77 72.64 L 65.04 72.48 L 65.31 72.30 L 65.56 72.11 L 65.81 71.92 L 66.05 71.71 L 66.27 71.49 L 66.48 71.27 L 66.69 71.04 L 66.88 70.80 L 67.06 70.55 L 67.23 70.30 L 67.38 70.04 L 67.53 69.78 L 67.66 69.51 L 67.77 69.24 L 67.88 68.97 L 67.97 68.69 L 68.05 68.41 L 68.12 68.12 L 68.18 67.84 L 68.22 67.56 L 68.25 67.27 L 68.26 66.99 L 68.27 66.71 L 68.26 66.43 L 68.24 66.15 L 68.21 65.87 L 68.17 65.65 Z" fill="url(#shellg)" fill-rule="evenodd"/>
</svg>
